<?xml version="1.0" encoding="utf-8"?>
<!-- Generator: Adobe Illustrator 27.9.0, SVG Export Plug-In . SVG Version: 6.00 Build 0)  -->
<svg version="1.1" id="图层_1" xmlns="http://www.w3.org/2000/svg" xmlns:xlink="http://www.w3.org/1999/xlink" x="0px" y="0px"
	 viewBox="0 0 160 64" style="enable-background:new 0 0 160 64;" xml:space="preserve">
<style type="text/css">
	.st0{fill:#FFFFFF;}
	.st1{display:none;fill:#FFFFFF;}
</style>
<g>
	<path class="st0" d="M105.3,42H87.1c-2.6,0.1-4,1.3-4,3.8v8.3c0.1,2.2,1.5,3.3,4,3.5h18c2.5-0.1,3.8-1.3,3.9-3.6v-8.2
		c0.1-2-1.4-3.6-3.4-3.8C105.6,42,105.4,42,105.3,42z M104.6,52.6c-0.1,1-0.7,1.5-1.9,1.7H89.3c-1.3-0.3-1.8-0.7-1.9-1.7v-5.4
		c0-1,0.8-1.9,1.8-1.9h0.1h13.1c1.1,0,2,0.8,2.1,2L104.6,52.6z"/>
	<path class="st0" d="M81,34v-4.7c0-1.1,0.9-2.1,2.1-2.1h19c1.4-0.1,2.1,0.5,2.1,1.8v3.3c0,1.1-0.7,1.7-1.9,1.7H82.8v3.2H105
		c2.3,0,3.6-1.1,3.6-3.2v-6.4c0.2-1.8-1.1-3.4-2.8-3.6c-0.3,0-0.5,0-0.8,0h-9.7v-2.6h-4.6V24H80.3c-2.6,0-3.9,1.2-3.9,3.9v12.3
		c0,5.8-0.9,11.6-2.6,17.1l4.3,0.8c1.8-5.5,2.7-11.3,2.8-17.1v-7.2H81V34z"/>
	<path class="st0" d="M116.2,39.1l4.4,2.4c2.6-1.9,4.4-4.6,5.1-7.6h7.8v-3.2h-7.1c0.2-1.3,0.3-2.6,0.3-3.9h6.6v-3.2H121v-2h-4.6v5.1
		h5.8c0,1.3-0.1,2.6-0.3,3.9h-6.7v3.3h5.8C120.4,36.2,118.6,38.1,116.2,39.1z"/>
	<path class="st0" d="M126.5,35.4c1.2,1.8,2.1,3.8,2.9,5.8h4.9c-0.8-2-1.8-4-2.9-5.8H126.5z"/>
	<path class="st0" d="M145.4,42.2h-24.7c-2.4,0.3-3.8,1.4-3.9,3.5v6.2h28.4v1.3c0,1.1-0.7,1.7-2.1,1.7h-19.7c-1.3,0-1.9-0.5-1.9-1.5
		H117v1.3c0,1.9,1.6,3.5,3.5,3.6h25.1c2.6-0.1,4-1.3,4-3.5v-9C149.2,43.7,147.5,42.2,145.4,42.2z M145,48.6h-23.7v-1.1
		c0-1,0.8-1.9,1.8-1.9h0.1H143c1.3,0,2.1,0.7,2.1,1.9L145,48.6z"/>
	<path class="st0" d="M147.3,22.7h-8.2c-2.2,0.1-3.5,1.1-3.8,2.9v11.7c0.1,1.6,1.4,2.9,3.1,2.9h8.7c1.9-0.1,3.1-1.1,3.1-2.9V25.7
		C150.4,24.1,149.4,23,147.3,22.7z M146,34.9c0,1.4-0.7,2.1-1.9,2.1h-2.4c-1,0-1.8-0.8-1.8-1.8c0-0.1,0-0.1,0-0.2v-7
		c0-1,0.8-1.9,1.8-1.9h0.1h2c1.1,0,2.1,0.8,2.1,1.9l0,0L146,34.9z"/>
</g>
<path class="st1" d="M67.2,44.1V20c0-2.6-1.4-5.1-3.7-6.4l-20.9-12c-2.3-1.3-5.1-1.3-7.4,0l-20.9,12c-2.3,1.3-3.7,3.8-3.7,6.4v24.1
	c0,2.6,1.4,5.1,3.7,6.4l20.9,12c2.3,1.3,5.1,1.3,7.4,0l20.9-12C65.8,49.2,67.2,46.7,67.2,44.1z"/>
<path class="st0" d="M61.9,15.4L42,3.9c-1.9-1.1-4.3-1.1-6.2,0L15.9,15.4c-1.9,1.1-3.1,3.2-3.1,5.4v22.9c0,2.2,1.2,4.3,3.1,5.4
	l3.8,2c0.8,0.4,0.8,1,0.8,1.9v0.1c0.1,1.6,1.8,3.5,4.2,3.5c2.3,0,4.3-1.9,4.4-4.2c0-1.6-0.8-3.1-2.3-3.9c-0.6-0.3-1.7-0.5-2.9-0.4
	c-0.9,0.1-1,0.6-2.8-0.5L18.3,46c-0.8-0.5-1.7-1.3-1.6-2.3V22c0-1.8,0.8-2.8,2.1-3.5L37,7.8C38.1,7,40.2,7.2,41.5,8l16.4,9.5
	c2.9,1.6,3,3,3,4v19.7c0,2.3-1.5,4-2.3,4.5l-15.1,8.5C42.8,54.5,42,54,42,53.3v-2.5c0-0.1,0-0.3,0-0.4v-2.5c0-0.8,0.4-1.6,1.1-2
	l8.8-5.7c1.4-0.9,2-1.7,2-3.8L53.7,28c0-1,0.4-1.9,1.2-2.5c1.5-1.3,2-3.7,0.8-5.6c-0.8-1.4-2.4-2.2-4-2c-1.6,0.1-2.8,1-3.5,2.4
	c-0.5,1-0.6,2.2-0.3,3.3c0.2,0.8,0.7,1.4,1.3,2c0.7,0.6,1.2,1.5,1.2,2.5v7.2c0,1.1-0.5,2.1-1.5,2.7l-5.5,2.8c-0.7,0.5-1.6,0-1.6-0.8
	l-0.2-17.1c0-1,0.5-1.9,1.2-2.5c0.4-0.3,0.7-0.8,1-1.3c0.7-1.3,0.7-2.9-0.1-4.3s-2.5-2.2-4.1-2.1c-2.9,0.3-4.6,3.1-3.8,5.7
	c0.2,0.8,0.7,1.4,1.3,2c0.7,0.6,1.2,1.5,1.2,2.5v9.9c0,0.8-0.8,1.3-1.5,0.9L34,32.5c-0.7-0.4-1.2-1.2-1.2-2.1v-2.2
	c0-1,0.4-1.9,1.2-2.5c1.5-1.3,2-3.7,0.8-5.6c-0.8-1.3-2.4-2.1-4-2c-2.9,0.2-4.7,3.1-3.8,5.7c0.2,0.8,0.7,1.5,1.3,2
	c0.7,0.6,1.2,1.5,1.2,2.5v3.5c0,1,0,2,1.6,3.1l5.5,3c0.7,0.4,1.2,1.2,1.2,2.1v4.5c0,0.8-0.8,1.3-1.5,0.9L26.6,41
	c-0.7-0.4-1.2-1.2-1.2-2.1l-0.2-6.1c0-1,0.4-1.8,1.1-2.5c1.4-1.3,1.9-3.4,0.9-5.3c-0.8-1.4-2.4-2.3-4-2.2c-2.9,0.2-4.6,3-3.8,5.6
	c0.2,0.7,0.7,1.4,1.2,1.9c0.7,0.6,1.1,1.5,1.1,2.5l-0.5,6.8c0,1.9,0.3,2.8,1.8,3.5l11.8,6.3c1,0.6,1.6,1.7,1.6,2.8v3.1
	c0,3.1,4.3,5.7,8.7,3.3l16.4-9.8c1.9-1,3.2-3,3.4-5.2V20.7C65,18.5,63.8,16.5,61.9,15.4z M24.2,50.7c1.1,0,2,0.9,2,2s-0.9,2-2,2
	s-2-0.9-2-2C22.2,51.7,23.1,50.7,24.2,50.7z M48.7,21.5c0-1.1,0.9-2,2-2s2,0.9,2,2s-0.9,2-2,2S48.7,22.6,48.7,21.5z M30.6,23.8
	c-1.1,0-2-0.9-2-2s0.9-2,2-2s2,0.9,2,2S31.8,23.8,30.6,23.8z M22.2,26.4c0-1.1,0.9-2,2-2s2,0.9,2,2s-0.9,2-2,2S22.2,27.5,22.2,26.4z
	 M40,17.9c-1.1,0-2-0.9-2-2s0.9-2,2-2s2,0.9,2,2S41.1,17.9,40,17.9z"/>
<g>
	<path class="st0" d="M75.7,5.4c0.7,0,1.2,0.1,1.5,0.2c0.3,0.1,0.4,0.3,0.5,0.5c0.1,0.2,0.1,0.4-0.1,0.6c-0.2,0.1-0.4,0.2-0.7,0.2
		c-0.2,0-0.5,0.2-0.8,0.6c-0.4,0.6-0.7,1-0.7,1.1c-0.2,0.3-0.3,0.4-0.3,0.5c0,0.1,0.3,0.1,0.9,0C76.3,9,76.8,9,77.4,9
		c0.4,0.1,0.7,0.2,0.8,0.4c0.2,0.2,0.3,0.4,0.3,0.5c0,0.2-0.1,0.6-0.5,1.1c-0.4,0.4-0.6,0.7-0.7,0.9c0,0.1,0,0.1,0,0.1
		c0,0,0.1-0.1,0.2-0.1c0.1,0,0.2-0.1,0.4-0.2c0.2-0.1,0.3-0.2,0.4-0.3c0.3-0.1,0.5-0.2,0.7-0.1c0.1,0.1,0.1,0.3,0,0.4
		c-0.1,0.3-0.4,0.6-0.8,0.8c-0.1,0.1-0.7,0.4-1.7,1.1c-0.7,0.4-1.2,0.6-1.5,0.6c-0.4-0.1-0.6-0.2-0.8-0.3c-0.1-0.1-0.3-0.7-0.4-1.6
		l0-1.3L73.6,12c-0.3,0.7-0.5,1.3-0.6,1.7c-0.1,0.4-0.3,0.6-0.4,0.7c-0.2,0.1-0.4,0-0.6-0.1c-0.1-0.1-0.2-0.2-0.2-0.3
		c0-0.1,0-0.3,0.1-0.5c0,0,0.4-1,1.2-2.7c0.7-1.5,1.3-2.5,1.8-3.2c0.5-0.7,0.7-1.1,0.7-1.2c-0.2,0-0.6,0-0.9,0
		c-0.8,0-1.3,0.1-1.8,0.2c-0.6,0.1-0.9,0.1-1,0.1c-0.1,0-0.1-0.2-0.1-0.4c0-0.1,0.3-0.2,0.8-0.4c0.4-0.1,0.9-0.3,1.3-0.4L75.7,5.4
		L75.7,5.4z M76.2,9.9c-0.5-0.1-0.8,0-1.1,0C75,10,75,10.5,75.1,11.5c0,0.8,0.1,1.2,0.2,1.2s0.2-0.1,0.5-0.4c0.4-0.4,0.8-0.9,1-1.4
		c0.1-0.1,0.1-0.3,0.2-0.5c0.1-0.1,0.1-0.2,0.1-0.3c0-0.1,0-0.1,0-0.1C77.1,9.9,76.8,9.9,76.2,9.9z M81.5,1.6c0.1,0,0.2,0,0.2,0.1
		c0,0.1,0,0.3,0,0.6c0,0.3,0,0.6,0,0.6c0,0.1,0.1,0.2,0.3,0.3c0.2,0.1,0.7,0.2,1.5,0.1c0.8-0.1,1.2,0,1.3,0.1C85,3.7,85,3.9,84.8,4
		c-0.1,0.2-0.5,0.6-1.3,1.3c-0.7,0.6-1.3,1-1.9,1.3c-0.1,0.1-0.3,0.2-0.4,0.4S81,7.3,81,7.4c0,0.1-0.1,0.5-0.2,1.2l0,1
		c0.3,0,0.7,0,1.1,0c0.5,0,0.8,0,0.9-0.2C82.9,9.2,83,8.8,83,8.2c0-0.8,0.1-1.3,0.2-1.4c0.2-0.1,0.3,0,0.4,0.1
		c0.1,0.2,0.2,0.7,0.2,1.4c0,0.6,0,0.9,0.1,1c0,0.1,0.2,0.2,0.5,0.3c0.4,0.1,0.6,0.2,0.7,0.3c0.1,0.1,0.1,0.4,0,0.7
		c0,0-0.1,0.1-0.2,0.2c-0.1,0.1-0.1,0.2-0.2,0.3c-0.1,0.1-0.2,0.2-0.2,0.3c-0.2,0.2-0.3,0.4-0.3,0.5c0,0.1,0.2,0,0.5-0.3
		c0.2-0.1,0.5-0.3,1-0.4c0.3-0.1,0.5,0,0.5,0.1c0,0.1-0.1,0.3-0.2,0.5c-0.2,0.3-0.5,0.5-0.8,0.6c-0.4,0.2-0.6,0.3-0.6,0.3
		s0.2,0.4,0.6,1c0.4,0.6,0.6,1.1,0.7,1.3c0.1,0.2,0.2,0.3,0.2,0.3s0.1-0.1,0.1-0.3c0-0.1,0.1-0.8,0.2-2c0.1-0.9,0-1.8-0.1-2.8
		c-0.1-0.6-0.2-1.2-0.5-1.7c-0.2-0.3-0.6-0.8-1.3-1.4s-0.9-1-0.9-1.1c0.1-0.1,0.2-0.1,0.3-0.1c0.1,0,0.4,0.1,0.8,0.4
		c0.3,0.2,0.8,0.6,1.3,1.2c0.5,0.5,0.8,0.9,1,1.5c0.2,0.5,0.3,1.2,0.4,2.2c0.1,0.7,0,1.9-0.1,3.4c-0.1,1.2-0.1,1.9-0.2,2.2
		c0,0-0.1,0.1-0.2,0.2c-0.1,0.1-0.1,0.1-0.2,0.2c-0.2,0-0.4-0.1-0.6-0.3c-0.2-0.2-0.5-0.6-0.8-1.1c-0.4-0.6-0.6-1.1-0.8-1.6
		c-0.2-0.4-0.3-0.6-0.3-0.6c0,0-0.1,0.1-0.1,0.5l0,0.6c-0.1,1-0.1,1.9,0,2.6c0,0.8,0,1.3-0.1,1.4c-0.1,0.1-0.2,0.2-0.4,0.2
		c-0.2,0-0.3-0.1-0.4-0.3c-0.1-0.1-0.2-0.3-0.3-0.8c0-0.5,0-0.8,0-0.9c0-0.1,0.1-0.7,0.2-1.8l0.1-1.5l-1.1,0.6
		c-0.4,0.2-0.9,0.5-1.4,0.8c-0.1,0.2-0.3,0.3-0.5,0.3s-0.3-0.1-0.4-0.3c-0.1-0.2-0.1-1,0-2.2c0-0.7,0.1-1.8,0.2-3.2
		C79.8,9,79.9,8.4,80,8c0.1-0.3,0.2-0.6,0.4-0.9c0.2-0.2,0.3-0.4,0.3-0.5c0-0.1,0.2-0.3,0.6-0.6c0.3-0.1,0.6-0.5,1.2-0.9
		c0.4-0.4,0.6-0.6,0.5-0.6l-0.3,0c-0.4,0-0.8-0.1-1.2-0.5c-0.4-0.2-0.6-0.4-0.7-0.7c-0.1-0.2-0.1-0.5,0-0.8c0.1-0.2,0.2-0.4,0.4-0.6
		C81.2,1.7,81.3,1.6,81.5,1.6z M82.8,10.5c-0.1,0-0.5-0.1-1.1-0.1h-1.2v1.5c0,1,0,1.6,0.1,1.6c0.1,0,0.7-0.4,1.6-1.1
		c0.3-0.3,0.5-0.6,0.6-0.7c0.1-0.1,0.1-0.3,0.1-0.6C82.9,10.7,82.9,10.5,82.8,10.5z"/>
	<path class="st0" d="M93.9,5.2c0,0,0.1,0,0.3,0c0.2,0,0.3,0,0.4,0c0.3,0.1,0.5,0.2,0.5,0.3c0,0,0,0.1,0,0.2c0,0.1-0.1,0.1-0.1,0.1
		c-0.1,0.1-0.2,0.2-0.2,0.4s0,0.5,0.1,1.2c0,0.5,0.1,1.3,0.3,2.2l0.2,0.8c0,0,0.1,0,0.2,0c0.1-0.1,0.3-0.1,0.7-0.1s0.6,0,0.7-0.1
		c0-0.1-0.2-0.3-0.7-0.6c-0.5-0.3-0.8-0.6-0.9-0.7c-0.1-0.3-0.1-0.5,0-0.5c0-0.1,0.1-0.2,0.2-0.2c0,0,0.5,0.2,1.3,0.7
		c0.6,0.3,1,0.7,1.3,1c0.1,0.2,0,0.5-0.1,0.7c-0.1,0.2-0.3,0.3-0.7,0.4c-0.2,0-0.4,0-0.4,0.1s0.1,0.1,0.4,0.3
		c0.4,0.3,0.6,0.5,0.6,0.7c0.1,0.2,0.1,0.4,0,0.6c0,0.1-0.1,0.2-0.4,0.2c-0.2,0-0.6-0.3-1.3-0.9c-0.6-0.6-0.9-0.9-1-0.8
		c0,0.1-0.1,0.1-0.3,0.2c-0.2,0.1-0.4,0.1-0.6,0c-0.1-0.1-0.3-0.3-0.4-0.5c-0.1-0.2-0.2-0.7-0.3-1.6c0-0.3-0.1-0.7-0.1-1.3
		c-0.1-0.6-0.1-1-0.1-1.2c-0.1-0.8-0.1-1.2-0.1-1.3C93.6,5.2,93.7,5.2,93.9,5.2z M102.7,5.5c0.8,0,1.3,0.1,1.6,0.3
		c0.3,0.1,0.5,0.3,0.5,0.6c0,0.2-0.2,0.4-0.5,0.5c-0.6,0.4-1.4,1-2.3,1.6c-0.9,0.7-1.5,1.2-1.6,1.3c-0.1,0.1-0.1,0.3,0,0.5
		c0.2,0.2,0.3,0.6,0.3,0.9c-0.1,0.4-0.1,0.6,0,0.6s0.3-0.1,0.7-0.2c0.4-0.1,0.6-0.3,0.6-0.4c0-0.1,0.1-0.2,0.2-0.3
		c0.2,0,0.5,0,0.7,0c0.4,0.1,0.7,0.2,0.8,0.3c0.1,0.1,0.1,0.3,0,0.5c-0.1,0.2-0.3,0.3-0.5,0.3c-0.4,0.1-1,0.3-1.7,0.4
		c-0.9,0.2-1.4,0.4-1.5,0.7c0,0-0.1,0.1-0.1,0.2c-0.1,0.1-0.1,0.2-0.2,0.3c0,0.1-0.1,0.2-0.2,0.4c-0.1,0.1-0.2,0.3-0.2,0.4
		c-0.6,0.8-1.1,1.4-1.4,1.8c-0.9,0.7-1.3,1.1-1.3,1.1c-0.4,0.3-0.8,0.4-1,0.5c-0.3,0.1-0.6,0.1-0.8,0.1c-0.2-0.1-0.5-0.3-0.7-0.6
		c-0.2-0.4-0.3-0.6-0.3-0.7c0.1-0.1,0.2-0.1,0.3-0.1c0.1,0,0.2,0.1,0.4,0.3c0.1,0.2,0.3,0.3,0.5,0.3c0.2,0,0.5,0,0.7-0.2
		c0.1-0.1,0.5-0.4,1.2-1c0.6-0.6,1.1-1.1,1.3-1.6c0.1-0.1,0.2-0.2,0.3-0.4c0.1-0.1,0.1-0.2,0.2-0.3c0-0.1,0-0.1,0-0.1
		c0,0-0.2,0.1-0.6,0.3s-1.3,0.8-2.8,1.7c-0.3,0.2-0.5,0.3-0.7,0.3c-0.2,0-0.4-0.1-0.6-0.2c-0.2-0.1-0.3-0.3-0.3-0.5
		c0-0.2,0-0.3,0.1-0.4c0.1-0.1,0.3-0.1,0.6-0.1c0.2,0.1,0.8-0.1,1.7-0.6c1.3-0.7,2.3-1.3,3-1.5c0.1,0,0.2-0.2,0.3-0.7
		c0.1-0.4,0.1-0.7,0-0.9c0-0.1,0-0.2-0.1-0.2c0,0-0.1,0-0.1,0c-0.1,0.1-0.2,0-0.3-0.1C99,10,99,9.9,99,9.9s0.2-0.2,0.4-0.4
		c0,0,0.1-0.1,0.2-0.2c0.1-0.1,0.2-0.2,0.3-0.3c0.1-0.1,0.2-0.2,0.3-0.3c0.1-0.1,0.2-0.2,0.3-0.2c0.5-0.5,0.9-0.9,1.4-1.2
		c0.5-0.4,0.7-0.6,0.6-0.7l-0.3,0c-0.2-0.1-0.7-0.1-1.5,0c-0.4,0-1.1,0.2-2.2,0.4c-0.6,0.1-1.2,0.3-1.9,0.6
		c-0.5,0.2-0.8,0.3-0.9,0.1c-0.1-0.1-0.1-0.2,0-0.4c0-0.1,0.3-0.3,0.8-0.6c0.4-0.2,1-0.4,1.7-0.6c0.2,0,0.6-0.1,1.1-0.3
		s0.9-0.2,1.1-0.2C101.7,5.6,102.4,5.5,102.7,5.5z M97.5,1.9c0.2,0,0.5,0.2,1,0.6c0.3,0.2,0.7,0.6,1.3,1c0.3,0.3,0.4,0.5,0.4,0.6
		c0,0.1-0.1,0.4-0.5,0.7c-0.3,0.3-0.6,0.6-1,0.7c-0.2,0.1-0.6,0.2-1.2,0.3c-0.5,0.1-0.8,0.1-0.9,0.1c-0.2-0.1-0.3-0.2-0.3-0.3
		c0-0.1,0.2-0.2,0.6-0.4c0,0,0.5-0.2,1.2-0.5c0.4-0.2,0.6-0.4,0.6-0.5c0.1-0.1,0-0.2-0.1-0.4c-0.3-0.1-0.6-0.4-1-0.8
		c-0.5-0.5-0.7-0.8-0.6-0.9C97.1,2,97.2,1.9,97.5,1.9z M103.6,13.3c0.1,0,0.2,0.1,0.4,0.4c0.2,0.3,0.4,0.7,0.6,1.2
		c0.1,0.1,0.2,0.5,0.4,1.2c0.1,0.5,0.2,0.9,0.3,1.5c0.1,0.4,0.1,0.7,0.1,0.8s0,0.2-0.1,0.3c-0.2,0.2-0.4,0.3-0.6,0.3
		c-0.2,0-0.4-0.1-0.5-0.3c-0.2-0.1-0.3-0.6-0.4-1.6c0-0.7-0.1-1.5-0.3-2.4c-0.2-0.7-0.2-1-0.1-1.1C103.4,13.4,103.5,13.3,103.6,13.3
		z"/>
	<path class="st0" d="M114,2.8c0.3,0.1,0.6,0.4,0.8,0.7c0.4,0.4,0.6,0.7,0.6,0.8c0,0.2-0.1,0.5-0.4,1c-0.2,0.4-0.8,1.1-1.6,1.9
		c-0.1,0.1-0.2,0.3-0.4,0.4c-0.1,0.1-0.2,0.3-0.3,0.4c-0.1,0.1-0.2,0.2-0.2,0.3c-0.1,0.1-0.1,0.2-0.2,0.2c0.3,0.1,0.6,0.2,1,0.3
		c0.5,0.1,0.9,0.3,1.2,0.4c0.1,0.3,0.2,0.4,0.2,0.5c0,0.2-0.1,0.6-0.4,0.9c-0.3,0.6-0.7,1.1-1.1,1.5c-0.4,0.5-0.6,0.7-0.5,0.8
		c0,0,0.2,0,0.5,0c0.4,0,0.7,0,0.9,0.1c0.1,0.1,0.3,0.2,0.5,0.6c0.1,0.2,0.1,0.2,0.3,0.2c0.1-0.1,0.6-0.5,1.2-1.2s1.1-1.2,1.3-1.3
		c0.2-0.2,0.4-0.3,0.7-0.4c0.4-0.1,0.7,0,0.8,0.1c0.1,0.1,0.2,0.3,0.3,0.7c0,0.1,0.1,0.5,0.2,1.1c0,0.3,0.1,0.5,0.1,0.5
		c0,0.1,0.1,0.1,0.2,0c0.1,0,0.6-0.1,1.3-0.4c0.8-0.3,1.5-0.4,2.3-0.4c0.5,0,0.8-0.1,0.9,0c0.1,0,0.3,0.1,0.5,0.3
		c0.1,0.1,0.2,0.3,0.2,0.3c0,0.1,0,0.2-0.1,0.4c-0.2,0.3-0.5,0.6-1,1.1c-0.1,0.1-0.4,0.3-0.6,0.6c-0.3,0.2-0.4,0.4-0.5,0.4
		c-0.2,0.1-0.3,0.2-0.3,0.2c0,0,0.1,0,0.4-0.1c0.1,0,0.3,0,0.5,0c0.3,0,0.4,0,0.6,0c0.4,0,0.6,0.1,0.8,0.2c0.1,0.1,0,0.4-0.2,0.6
		c-0.3,0.3-0.6,0.4-1.1,0.4c-0.6,0-1.1,0.1-1.3,0.2c-0.3,0-0.7,0.3-1.5,0.7c-0.6,0.4-1,0.6-1.1,0.6s-0.2,0-0.4-0.1
		c-0.1-0.2-0.1-0.3-0.1-0.5c0-0.2,0.1-0.4,0.2-0.6c0.2-0.1,0.3-0.3,0.3-0.4c0-0.1-0.1-0.3-0.3-0.7c-0.3-0.8-0.5-1.2-0.5-1.3
		c-0.2-0.7-0.3-1.3-0.4-1.9c0-0.2-0.1-0.4-0.1-0.7c0-0.2-0.1-0.4-0.1-0.6c0-0.1,0-0.2,0-0.2h-0.1c0,0,0,0.1-0.1,0.3
		c-0.1,0.1-0.3,0.4-0.5,0.7c-0.2,0.3-0.4,0.6-0.6,0.8c-0.9,1.1-1.5,1.9-1.9,2.7c-0.1,0.2-0.4,0.5-0.6,0.8c-0.3,0.4-0.4,0.6-0.5,0.6
		c-0.2,0.4-0.4,0.6-0.6,0.6c-0.2,0-0.4-0.1-0.6-0.2c-0.1-0.1-0.2-0.3-0.2-0.6c0-0.2,0.2-0.7,0.7-1.3c0.4-0.7,0.6-1.1,0.7-1.3
		c0.1-0.3,0-0.4,0-0.5c0,0-0.4,0-1-0.1c-0.5-0.1-0.8-0.2-1.1-0.4c-0.2-0.2-0.3-0.3-0.3-0.5c0.1-0.1,0.4-0.4,0.8-0.7
		c0.5-0.4,0.9-0.7,1.2-1.1c0.2-0.3,0.4-0.6,0.5-1c0-0.2,0-0.3,0-0.3s-0.2-0.1-0.4-0.2c-0.1,0-0.6-0.1-1.3-0.2
		c-0.6-0.1-0.9-0.2-1-0.3c-0.1-0.1-0.1-0.2,0-0.4c0.1-0.2,0.3-0.4,0.7-0.6c0.3-0.2,0.8-0.7,1.4-1.5c0.7-0.9,1.1-1.4,1.1-1.6
		c0.1-0.2,0.2-0.4,0.2-0.5s0-0.2-0.1-0.4c-0.2-0.2-0.3-0.4-0.4-0.5c-0.1-0.1-0.1-0.2-0.1-0.3c0-0.1,0-0.2,0.1-0.3
		C113.7,2.8,113.8,2.8,114,2.8z M120.5,1.9c0,0,0.2,0.1,0.5,0.4c0.2,0.3,0.3,0.6,0.3,0.9L121,4.3c-0.1,0.4-0.2,0.6-0.2,0.7
		c0,0.1,0.1,0.1,0.2,0.1s0.5,0.1,1.1,0.5c1.1,0.6,1.7,1,1.8,1c0.5,0.3,1.2,0.9,2,1.7c0.7,0.7,1.1,1.1,1.1,1.2l-0.3,0.5
		c-0.2,0.3-0.4,0.4-0.6,0.3c-0.2-0.1-0.5-0.4-1-0.9c-0.5-0.5-0.7-0.8-0.6-0.9c0,0,0,0,0,0s0-0.1-0.1-0.1c0-0.1-0.1-0.1-0.2-0.2
		c-0.1,0-0.2-0.1-0.3-0.3c-0.1-0.1-0.3-0.2-0.4-0.4s-0.3-0.2-0.5-0.4s-0.3-0.2-0.3-0.3c-0.1,0-0.3-0.1-0.6-0.3
		c-0.4-0.2-0.6-0.4-0.8-0.5c-0.6-0.3-1-0.4-1-0.3c0,0,0,0-0.1,0.1c0,0,0,0.1-0.1,0.1c0,0.1-0.1,0.1-0.1,0.2c0,0.1-0.1,0.1-0.2,0.2
		c-0.1,0.1-0.1,0.2-0.2,0.3c-0.2,0.3-0.8,1-1.8,2.1c-0.9,0.9-1.6,1.5-2,1.8c-0.5,0.4-0.8,0.6-0.9,0.6c-0.1,0-0.2,0-0.3-0.1
		c-0.1-0.2-0.2-0.3-0.1-0.4c0.1-0.1,0.4-0.4,0.8-0.6c0.4-0.2,1-0.8,1.8-1.6c0.7-0.7,1.3-1.4,2-2.2c0.5-0.6,0.8-1.2,1.1-1.6
		c0.1-0.2,0.2-0.6,0.3-1c0-0.3,0-0.6,0-0.9c-0.1-0.2-0.1-0.4,0-0.6C120.4,2,120.4,1.9,120.5,1.9z M123,8.7c0.3,0.1,0.4,0.2,0.5,0.2
		c0.1,0.1,0.2,0.2,0.2,0.3c0,0.1-0.2,0.4-0.5,0.7c-0.3,0.4-0.6,0.6-0.8,0.5c-0.1,0-0.2-0.1-0.2-0.4c0-0.1,0-0.2-0.1-0.3
		c-0.1,0-0.4,0-1,0c-0.8,0.1-1.5,0.2-2,0.4c-0.5,0.2-0.9,0.4-1.1,0.4c-0.2,0-0.3-0.1-0.3-0.3c0-0.2,0.1-0.4,0.4-0.6
		c0.3-0.2,0.7-0.4,1.3-0.5c0.7-0.2,1.4-0.3,2.1-0.4C121.9,8.7,122.4,8.7,123,8.7z M122.9,13.2c-0.2,0-0.6,0-1,0.1
		c-0.1,0-0.6,0.2-1.5,0.4c-0.4,0.2-0.6,0.3-0.7,0.4s-0.1,0.2,0,0.5c0,0.2,0.1,0.6,0.3,1l0.4,0.6c0.1,0,0.5-0.3,1.2-0.9
		c0.7-0.6,1.2-1.1,1.4-1.4c0.2-0.2,0.4-0.4,0.4-0.6C123.1,13.2,123,13.2,122.9,13.2z"/>
	<path class="st0" d="M139.4,1.1c0,0,0.2,0.1,0.6,0.4c0.2,0.2,0.4,0.5,0.5,0.8c0,0.1-0.1,0.8-0.4,1.9c-0.3,0.8-0.6,1.7-0.9,2.6
		C139.1,6.8,139,7,139,7.2c-0.1,0.2-0.1,0.3-0.1,0.4c0,0.1,0,0.1,0,0.1c0,0.1,0.6,0.1,1.7,0c1.2,0,1.9,0.1,2.3,0.2
		c0.4,0.1,0.7,0.4,1.1,0.7c0.3,0.4,0.5,0.7,0.6,1c0.1,0.2,0,0.7-0.1,1.5c-0.2,0.8-0.4,1.4-0.7,1.9c-0.4,0.8-0.6,1.3-0.8,1.5
		c-0.1,0.3-0.6,0.8-1.3,1.5l-1.3,1.3c-0.3,0.2-0.5,0.3-0.6,0.3s-0.6-0.1-1.3-0.4c-0.6-0.3-1.1-0.5-1.4-0.7c-0.2-0.2-0.3-0.3-0.3-0.4
		c0.1-0.1,0.4,0,1,0.1c0.6,0.1,1.1,0.2,1.5,0.1c0.3,0,0.5-0.1,0.7-0.2c0.2-0.1,0.5-0.4,0.9-0.8c0.6-0.6,1.1-1.3,1.5-2
		c0.3-0.6,0.6-1.2,0.8-1.8c0.1-0.4,0.2-0.8,0.2-1.2c0-0.4-0.1-0.6-0.2-0.7c-0.1-0.2-0.4-0.4-0.9-0.6c-0.5-0.1-1.2-0.2-2.1-0.2
		l-1.5,0.1l-0.7,2c-0.3,0.8-0.7,1.8-1.2,2.8c-0.1,0.2-0.3,0.5-0.6,1c-0.3,0.5-0.4,0.8-0.5,0.9c-0.8,1.2-1.3,1.9-1.4,2.1
		c-0.5,0.6-0.8,1-0.9,1.1c-0.1,0.1-0.3,0.1-0.6,0c-0.2-0.1-0.3-0.2-0.3-0.4c0-0.2,0.1-0.5,0.2-0.8c0.1-0.4,0.3-0.5,0.4-0.4
		c0.1,0,0.2,0,0.3-0.2c0.1-0.2,0.4-0.5,0.7-0.9c0.6-1,1.2-1.9,1.6-2.8c0.9-1.8,1.3-2.8,1.3-2.9c0.4-0.9,0.5-1.4,0.5-1.5
		c-0.6,0-1.1,0-1.7,0.1c-0.2,0-0.6,0-1,0c-0.4,0-0.8,0-1.1,0.1c-0.3,0-0.6,0-0.8,0.1c-0.6,0-1,0.1-1.1,0c-0.1,0-0.2-0.1-0.2-0.2
		c0-0.2,0.2-0.3,0.5-0.4c1.6-0.3,3.1-0.4,4.5-0.5c0.6-0.1,1-0.2,1.1-0.3c0.1-0.1,0.4-0.6,0.7-1.4c0.1-0.2,0.1-0.5,0.2-0.7
		c0.1-0.3,0.2-0.5,0.2-0.7c0.1-0.2,0.2-0.4,0.2-0.7c0.1-0.2,0.1-0.4,0.2-0.5c0.1-0.6,0.2-0.9,0.2-1.1c0-0.1-0.1-0.3-0.2-0.6
		c-0.2-0.3-0.2-0.5-0.1-0.7C139.2,1.1,139.3,1.1,139.4,1.1z"/>
	<path class="st0" d="M157.8,3.7c0.1,0,0.3,0,0.4,0.1c0,0,0,0,0.1,0c0,0,0.1,0,0.1,0.1c0,0,0,0.1,0,0.1c0,0.1,0,0.9,0,2.3
		c-0.2,1.5-0.3,3-0.3,4.5c-0.1,1.7-0.1,2.6-0.2,2.7c-0.1,0.1-0.2,0.3-0.4,0.4c-0.2,0-0.3,0-0.4-0.2c-0.1-0.2-0.2-0.7-0.2-1.6
		c0-0.6,0.1-2.1,0.3-4.7c0-0.3,0.1-0.7,0.1-1.1c0-0.4,0.1-0.7,0.1-1c0-0.3,0-0.6,0.1-0.8c0-0.2,0-0.5,0.1-0.6c0-0.1,0-0.2,0-0.3
		C157.5,3.7,157.6,3.7,157.8,3.7z M157.7,15c0.3,0.2,0.5,0.4,0.5,0.5c0.1,0.1,0,0.3-0.1,0.6c-0.1,0.2-0.2,0.3-0.3,0.3
		c0,0-0.2,0-0.5-0.1c0,0-0.1-0.1-0.1-0.1c-0.1,0-0.1-0.1-0.1-0.1c0,0,0-0.1,0-0.1c0,0,0-0.2,0-0.5c0.1-0.2,0.2-0.4,0.3-0.5
		C157.3,14.9,157.5,14.9,157.7,15z"/>
</g>
</svg>
